<svg width="149" height="36" viewBox="0 0 149 36" fill="none" xmlns="http://www.w3.org/2000/svg">
<path d="M7.656 35L0.168 1.4H11.784L17.832 29.864H10.44L28.104 1.4H39.72L18.792 35H7.656ZM52.5705 35.768C49.0825 35.768 46.0585 35.128 43.4985 33.848C40.9705 32.568 39.0025 30.808 37.5945 28.568C36.2185 26.296 35.5305 23.688 35.5305 20.744C35.5305 17.768 36.0425 15.064 37.0665 12.632C38.1225 10.168 39.5945 8.04 41.4825 6.248C43.3705 4.456 45.6105 3.08 48.2025 2.12C50.7945 1.128 53.6265 0.631999 56.6985 0.631999C60.1865 0.631999 63.1945 1.272 65.7225 2.552C68.2825 3.832 70.2505 5.608 71.6265 7.88C73.0345 10.12 73.7385 12.712 73.7385 15.656C73.7385 18.632 73.2105 21.352 72.1545 23.816C71.1305 26.248 69.6745 28.36 67.7865 30.152C65.8985 31.944 63.6585 33.336 61.0665 34.328C58.4745 35.288 55.6425 35.768 52.5705 35.768ZM53.5305 26.6C54.9385 26.6 56.1705 26.328 57.2265 25.784C58.3145 25.24 59.2425 24.488 60.0105 23.528C60.7785 22.568 61.3545 21.48 61.7385 20.264C62.1225 19.016 62.3145 17.704 62.3145 16.328C62.3145 15.016 62.0425 13.88 61.4985 12.92C60.9865 11.928 60.2345 11.16 59.2425 10.616C58.2825 10.072 57.1145 9.8 55.7385 9.8C54.3625 9.8 53.1305 10.072 52.0425 10.616C50.9545 11.16 50.0265 11.912 49.2585 12.872C48.4905 13.832 47.9145 14.936 47.5305 16.184C47.1465 17.4 46.9545 18.696 46.9545 20.072C46.9545 21.352 47.2105 22.488 47.7225 23.48C48.2665 24.472 49.0185 25.24 49.9785 25.784C50.9705 26.328 52.1545 26.6 53.5305 26.6ZM93.45 35.768C89.994 35.768 86.97 35.144 84.378 33.896C81.786 32.616 79.77 30.856 78.33 28.616C76.922 26.344 76.218 23.72 76.218 20.744C76.218 17.8 76.73 15.096 77.754 12.632C78.81 10.168 80.298 8.04 82.218 6.248C84.138 4.456 86.41 3.08 89.034 2.12C91.69 1.128 94.618 0.631999 97.818 0.631999C101.338 0.631999 104.362 1.192 106.89 2.312C109.45 3.4 111.514 5.032 113.082 7.208L104.97 13.496C103.882 12.088 102.73 11.128 101.514 10.616C100.298 10.072 98.89 9.8 97.29 9.8C95.818 9.8 94.49 10.056 93.306 10.568C92.122 11.048 91.098 11.752 90.234 12.68C89.402 13.576 88.762 14.648 88.314 15.896C87.866 17.144 87.642 18.52 87.642 20.024C87.642 21.336 87.93 22.488 88.506 23.48C89.114 24.472 89.962 25.24 91.05 25.784C92.17 26.328 93.498 26.6 95.034 26.6C96.314 26.6 97.594 26.392 98.874 25.976C100.154 25.528 101.466 24.776 102.81 23.72L107.082 31.784C105.322 33.064 103.274 34.056 100.938 34.76C98.602 35.432 96.106 35.768 93.45 35.768ZM97.578 30.056L100.122 17.288H109.962L107.082 31.784L97.578 30.056ZM107.589 35L128.997 1.4H140.133L148.101 35H136.821L131.397 6.632H135.813L119.541 35H107.589ZM117.477 29.144L121.989 20.984H137.445L138.693 29.144H117.477Z" fill="#CBE4DE"/>
</svg>
